<?xml version="1.0" standalone="no"?>
<!DOCTYPE svg PUBLIC "-//W3C//DTD SVG 20010904//EN"
 "http://www.w3.org/TR/2001/REC-SVG-20010904/DTD/svg10.dtd">
<svg version="1.0" xmlns="http://www.w3.org/2000/svg"
 width="680.000000pt" height="543.000000pt" viewBox="0 0 680.000000 543.000000"
 preserveAspectRatio="xMidYMid meet">

<g transform="translate(0.000000,543.000000) scale(0.100000,-0.100000)"
fill="#000000" stroke="none">
<path d="M0 2715 l0 -2715 3400 0 3400 0 0 2715 0 2715 -3400 0 -3400 0 0
-2715z m1162 292 c67 -93 73 -106 48 -104 -11 1 -20 6 -20 12 0 5 -5 3 -10 -5
-8 -13 -13 -13 -40 3 -30 18 -31 18 -65 -3 -18 -11 -43 -23 -55 -25 -11 -2
-35 -14 -53 -27 l-32 -23 39 55 c87 124 130 180 136 180 4 0 27 -29 52 -63z
m898 -107 l0 -140 130 0 130 0 0 140 0 140 25 0 25 0 0 -301 0 -300 -22 3
c-22 3 -23 7 -28 138 l-5 135 -125 0 -125 0 -3 -137 c-2 -130 -4 -138 -22
-138 -19 0 -20 8 -20 300 0 293 0 300 20 300 19 0 20 -7 20 -140z m928 -48
c49 -176 53 -194 52 -299 l0 -113 -25 0 c-25 0 -25 1 -25 85 l0 85 -130 0
-130 0 0 -86 c0 -83 -1 -85 -22 -82 -22 3 -23 8 -26 111 -3 105 -1 116 49 290
28 100 53 185 56 190 2 4 37 7 76 7 l72 0 53 -188z m664 141 c48 -47 48 -48
48 -112 0 -62 -2 -67 -37 -103 l-37 -38 37 -38 37 -38 0 -112 c0 -105 -1 -112
-20 -112 -19 0 -20 7 -20 98 l0 98 -43 42 -44 43 -84 -3 -84 -3 -3 -137 -3
-138 -24 0 -25 0 0 300 0 300 127 0 127 0 48 -47z m665 -5 c49 -49 53 -56 53
-100 0 -41 -3 -48 -20 -48 -16 0 -20 7 -20 37 0 29 -8 45 -37 75 -35 36 -41
38 -97 38 -54 0 -63 -3 -93 -32 -29 -28 -33 -38 -33 -84 l0 -52 150 -64 150
-63 0 -80 0 -80 -52 -47 c-53 -48 -54 -48 -123 -48 l-69 0 -53 52 c-49 49 -53
56 -53 100 0 45 2 48 25 48 23 0 25 -4 25 -42 0 -34 6 -49 32 -75 29 -30 37
-33 93 -33 58 0 63 2 99 39 34 35 37 42 34 86 l-3 48 -152 65 -153 65 0 71 0
70 52 53 52 53 70 0 70 0 53 -52z m415 -85 l3 -138 127 -3 127 -3 3 138 c3
135 4 138 26 141 l22 3 0 -301 0 -301 -22 3 c-22 3 -23 7 -28 138 l-5 135
-125 0 -125 0 -3 -137 c-2 -130 -4 -138 -22 -138 -19 0 -20 8 -20 300 0 292 1
300 20 300 18 0 20 -8 22 -137z m793 112 c0 -15 -8 -21 -32 -23 l-33 -3 0
-250 0 -249 29 0 c33 0 44 -11 35 -34 -5 -13 -23 -16 -91 -16 -82 0 -84 1 -81
23 2 17 11 23 36 25 l32 3 0 249 0 249 -32 3 c-26 2 -34 8 -36 26 -3 22 -2 23
85 20 80 -3 88 -5 88 -23z m675 0 c0 -25 -1 -25 -80 -25 l-80 0 0 -275 c0
-268 0 -275 -20 -275 -20 0 -20 7 -20 275 l0 275 -80 0 c-79 0 -80 0 -80 25
l0 25 180 0 180 0 0 -25z m-5077 -142 c-7 -2 -19 -2 -25 0 -7 3 -2 5 12 5 14
0 19 -2 13 -5z m1 -51 c2 -4 -4 -9 -15 -9 -11 -1 -17 2 -14 8 7 11 22 12 29 1z
m-94 -57 c-7 -8 -18 -15 -24 -15 -6 0 -2 7 8 15 25 19 32 19 16 0z m-40 -79
c0 -3 -4 -8 -10 -11 -5 -3 -10 -1 -10 4 0 6 5 11 10 11 6 0 10 -2 10 -4z
m-333 -342 c-3 -3 -12 -4 -19 -1 -8 3 -5 6 6 6 11 1 17 -2 13 -5z"/>
<path d="M1102 3018 c-17 -17 -15 -24 8 -24 22 0 24 4 12 23 -6 10 -11 10 -20
1z"/>
<path d="M1074 2955 c-20 -31 -13 -41 15 -23 17 10 25 10 41 0 34 -21 42 -13
20 18 -26 37 -54 38 -76 5z"/>
<path d="M2811 2953 c-6 -21 -26 -92 -46 -158 -19 -66 -35 -123 -35 -127 0 -5
59 -8 130 -8 88 0 130 4 130 11 0 12 -50 191 -76 272 -15 45 -17 47 -54 47
-37 0 -40 -2 -49 -37z"/>
<path d="M3400 2875 l0 -115 88 0 88 0 42 43 c57 58 58 97 4 150 l-38 37 -92
0 -92 0 0 -115z"/>
</g>
</svg>
